name Run_50002_GRF.mot
datacolumns 19
datarows 31
range 1.619 1.649
endheader
time	     ground_force_vx	     ground_force_vy	     ground_force_vz	     ground_force_px	     ground_force_py	     ground_force_pz	   l_ground_force_vx	   l_ground_force_vy	   l_ground_force_vz	   l_ground_force_px	   l_ground_force_py	   l_ground_force_pz	     ground_torque_x	     ground_torque_y	     ground_torque_z	   l_ground_torque_x	   l_ground_torque_y	   l_ground_torque_z	
1.619	          0.00000000	          0.00000000	          0.00000000	          0.00000000	          0.00000000	          0.00000000	        193.80543500	       1331.34423800	        -58.25233500	          0.79782100	          0.00000000	         -0.36283600	          0.00000000	          0.00000000	          0.00000000	         -0.00000000	          7.01300100	         -0.00000000	
1.62	          0.00000000	          0.00000000	          0.00000000	          0.00000000	          0.00000000	          0.00000000	        199.75126600	       1304.63757300	        -59.59372300	          0.79354100	          0.00000000	         -0.36270200	          0.00000000	          0.00000000	          0.00000000	         -0.00000000	          7.24648900	         -0.00000000	
1.621	          0.00000000	          0.00000000	          0.00000000	          0.00000000	          0.00000000	          0.00000000	        205.48954800	       1277.62658700	        -60.87766600	          0.78921600	          0.00000000	         -0.36258200	          0.00000000	          0.00000000	          0.00000000	         -0.00000000	          7.47129100	         -0.00000000	
1.622	          0.00000000	          0.00000000	          0.00000000	          0.00000000	          0.00000000	          0.00000000	        210.99383500	       1250.35827600	        -62.09451300	          0.78485000	          0.00000000	         -0.36247600	          0.00000000	          0.00000000	          0.00000000	         -0.00000000	          7.68651600	         -0.00000000	
1.623	          0.00000000	          0.00000000	          0.00000000	          0.00000000	          0.00000000	          0.00000000	        216.23663300	       1222.87915000	        -63.23468000	          0.78044600	          0.00000000	         -0.36238000	          0.00000000	          0.00000000	          0.00000000	         -0.00000000	          7.89130600	         -0.00000000	
1.624	          0.00000000	          0.00000000	          0.00000000	          0.00000000	          0.00000000	          0.00000000	        221.18975800	       1195.23510700	        -64.28879500	          0.77601100	          0.00000000	         -0.36229500	          0.00000000	          0.00000000	          0.00000000	         -0.00000000	          8.08484400	         -0.00000000	
1.625	          0.00000000	          0.00000000	          0.00000000	          0.00000000	          0.00000000	          0.00000000	        225.82467700	       1167.47045900	        -65.24789400	          0.77154900	          0.00000000	         -0.36221800	          0.00000000	          0.00000000	          0.00000000	         -0.00000000	          8.26635300	         -0.00000000	
1.626	          0.00000000	          0.00000000	          0.00000000	          0.00000000	          0.00000000	          0.00000000	        230.11308300	       1139.62768600	        -66.10355400	          0.76706700	          0.00000000	         -0.36214900	          0.00000000	          0.00000000	          0.00000000	         -0.00000000	          8.43510500	         -0.00000000	
1.627	          0.00000000	          0.00000000	          0.00000000	          0.00000000	          0.00000000	          0.00000000	        234.02737400	       1111.74743700	        -66.84806100	          0.76257400	          0.00000000	         -0.36208500	          0.00000000	          0.00000000	          0.00000000	         -0.00000000	          8.59042300	         -0.00000000	
1.628	          0.00000000	          0.00000000	          0.00000000	          0.00000000	          0.00000000	          0.00000000	        237.54142800	       1083.86792000	        -67.47454800	          0.75807900	          0.00000000	         -0.36202500	          0.00000000	          0.00000000	          0.00000000	         -0.00000000	          8.73168200	         -0.00000000	
1.629	          0.00000000	          0.00000000	          0.00000000	          0.00000000	          0.00000000	          0.00000000	        240.63121000	       1056.02514600	        -67.97710400	          0.75359000	          0.00000000	         -0.36196800	          0.00000000	          0.00000000	          0.00000000	         -0.00000000	          8.85831500	         -0.00000000	
1.63	          0.00000000	          0.00000000	          0.00000000	          0.00000000	          0.00000000	          0.00000000	        243.27548200	       1028.25244100	        -68.35089900	          0.74911800	          0.00000000	         -0.36191200	          0.00000000	          0.00000000	          0.00000000	         -0.00000000	          8.96981300	         -0.00000000	
1.631	          0.00000000	          0.00000000	          0.00000000	          0.00000000	          0.00000000	          0.00000000	        245.45655800	       1000.58111600	        -68.59223900	          0.74467300	          0.00000000	         -0.36185600	          0.00000000	          0.00000000	          0.00000000	         -0.00000000	          9.06573200	         -0.00000000	
1.632	          0.00000000	          0.00000000	          0.00000000	          0.00000000	          0.00000000	          0.00000000	        247.16082800	        973.03997800	        -68.69865400	          0.74026700	          0.00000000	         -0.36179900	          0.00000000	          0.00000000	          0.00000000	         -0.00000000	          9.14568900	         -0.00000000	
1.633	          0.00000000	          0.00000000	          0.00000000	          0.00000000	          0.00000000	          0.00000000	        248.37942500	        945.65557900	        -68.66892200	          0.73591100	          0.00000000	         -0.36174000	          0.00000000	          0.00000000	          0.00000000	         -0.00000000	          9.20936900	         -0.00000000	
1.634	          0.00000000	          0.00000000	          0.00000000	          0.00000000	          0.00000000	          0.00000000	        249.10852100	        918.45251500	        -68.50309000	          0.73161500	          0.00000000	         -0.36167800	          0.00000000	          0.00000000	          0.00000000	         -0.00000000	          9.25652000	         -0.00000000	
1.635	          0.00000000	          0.00000000	          0.00000000	          0.00000000	          0.00000000	          0.00000000	        249.34957900	        891.45330800	        -68.20246100	          0.72739200	          0.00000000	         -0.36161200	          0.00000000	          0.00000000	          0.00000000	         -0.00000000	          9.28696300	         -0.00000000	
1.636	          0.00000000	          0.00000000	          0.00000000	          0.00000000	          0.00000000	          0.00000000	        249.10951200	        864.67871100	        -67.76957700	          0.72325000	          0.00000000	         -0.36154100	          0.00000000	          0.00000000	          0.00000000	         -0.00000000	          9.30058500	         -0.00000000	
1.637	          0.00000000	          0.00000000	          0.00000000	          0.00000000	          0.00000000	          0.00000000	        248.40043600	        838.14776600	        -67.20815300	          0.71920000	          0.00000000	         -0.36146400	          0.00000000	          0.00000000	          0.00000000	         -0.00000000	          9.29733800	         -0.00000000	
1.638	          0.00000000	          0.00000000	          0.00000000	          0.00000000	          0.00000000	          0.00000000	        247.23948700	        811.87786900	        -66.52301800	          0.71524900	          0.00000000	         -0.36138200	          0.00000000	          0.00000000	          0.00000000	         -0.00000000	          9.27724700	         -0.00000000	
1.639	          0.00000000	          0.00000000	          0.00000000	          0.00000000	          0.00000000	          0.00000000	        245.64820900	        785.88501000	        -65.72000100	          0.71140400	          0.00000000	         -0.36129400	          0.00000000	          0.00000000	          0.00000000	         -0.00000000	          9.24040100	         -0.00000000	
1.64	          0.00000000	          0.00000000	          0.00000000	          0.00000000	          0.00000000	          0.00000000	        243.65200800	        760.18383800	        -64.80585500	          0.70767200	          0.00000000	         -0.36120100	          0.00000000	          0.00000000	          0.00000000	         -0.00000000	          9.18695700	         -0.00000000	
1.641	          0.00000000	          0.00000000	          0.00000000	          0.00000000	          0.00000000	          0.00000000	        241.27934300	        734.78759800	        -63.78812800	          0.70405600	          0.00000000	         -0.36110100	          0.00000000	          0.00000000	          0.00000000	         -0.00000000	          9.11713600	         -0.00000000	
1.642	          0.00000000	          0.00000000	          0.00000000	          0.00000000	          0.00000000	          0.00000000	        238.56083700	        709.70849600	        -62.67501800	          0.70056000	          0.00000000	         -0.36099600	          0.00000000	          0.00000000	          0.00000000	         -0.00000000	          9.03122100	         -0.00000000	
1.643	          0.00000000	          0.00000000	          0.00000000	          0.00000000	          0.00000000	          0.00000000	        235.52847300	        684.95764200	        -61.47525400	          0.69718400	          0.00000000	         -0.36088700	          0.00000000	          0.00000000	          0.00000000	         -0.00000000	          8.92955800	         -0.00000000	
1.644	          0.00000000	          0.00000000	          0.00000000	          0.00000000	          0.00000000	          0.00000000	        232.21456900	        660.54510500	        -60.19794800	          0.69392900	          0.00000000	         -0.36077400	          0.00000000	          0.00000000	          0.00000000	         -0.00000000	          8.81255000	         -0.00000000	
1.645	          0.00000000	          0.00000000	          0.00000000	          0.00000000	          0.00000000	          0.00000000	        228.65101600	        636.48004200	        -58.85246300	          0.69079400	          0.00000000	         -0.36065700	          0.00000000	          0.00000000	          0.00000000	         -0.00000000	          8.68065500	         -0.00000000	
1.646	          0.00000000	          0.00000000	          0.00000000	          0.00000000	          0.00000000	          0.00000000	        224.86842300	        612.77093500	        -57.44826100	          0.68777600	          0.00000000	         -0.36053900	          0.00000000	          0.00000000	          0.00000000	         -0.00000000	          8.53438600	         -0.00000000	
1.647	          0.00000000	          0.00000000	          0.00000000	          0.00000000	          0.00000000	          0.00000000	        220.89549300	        589.42559800	        -55.99477400	          0.68487100	          0.00000000	         -0.36042000	          0.00000000	          0.00000000	          0.00000000	         -0.00000000	          8.37430500	         -0.00000000	
1.648	          0.00000000	          0.00000000	          0.00000000	          0.00000000	          0.00000000	          0.00000000	        216.75845300	        566.45111100	        -54.50128200	          0.68207500	          0.00000000	         -0.36030300	          0.00000000	          0.00000000	          0.00000000	         -0.00000000	          8.20102000	         -0.00000000	
1.649	          0.00000000	          0.00000000	          0.00000000	          0.00000000	          0.00000000	          0.00000000	        212.48071300	        543.85455300	        -52.97679500	          0.67938400	          0.00000000	         -0.36018700	          0.00000000	          0.00000000	          0.00000000	         -0.00000000	          8.01518200	         -0.00000000	
